<mxfile host="app.diagrams.net" modified="2023-09-27T03:30:48.936Z" agent="Mozilla/5.0 (Windows NT 10.0; Win64; x64) AppleWebKit/537.36 (KHTML, like Gecko) Chrome/117.0.0.0 Safari/537.36" version="21.7.5" etag="A4okQ5Di-m5jlK5mwhvO" type="github">
  <diagram name="第 1 页" id="q_-iJiKFyFHrVhB6dvIz">
    <mxGraphModel>
      <root>
        <mxCell id="0" />
        <mxCell id="1" parent="0" />
      </root>
    </mxGraphModel>
  </diagram>
</mxfile>
